<?xml version="1.0" encoding="UTF-8"?>
<svg id="Lag_2" data-name="Lag 2" xmlns="http://www.w3.org/2000/svg" viewBox="0 0 69.89 55.7">
  <defs>
    <style>
      .cls-1 {
        fill: #fff;
      }

      .cls-2 {
        fill: #262224;
        fill-rule: evenodd;
        stroke: #211e1f;
        stroke-miterlimit: 10;
        stroke-width: .5px;
      }
    </style>
  </defs>
  <g id="Layer_1" data-name="Layer 1">
    <g>
      <path class="cls-1" d="M4.08,32.17s-4.53-2.88-2.43-5.41,5.5.44,5.5.44c0,0,12.2,9.78,19.74,19.21,0,0,20.87-33.8,35.9-43.76,0,0,2.77-3.6,5.52-.85,2.75,2.75-2.19,5.44-2.19,5.44,0,0-12.11,7.51-34.86,42.86,0,0-2.36,5.09-3.76,4.52,0,0-.68.87-5.55-5.28-2.47-3.12-7.71-9.28-17.87-17.16Z"/>
      <path class="cls-2" d="M3.74,33.03c.94.72,1.87,1.46,2.79,2.22,2.82,2.31,5.54,4.73,8.15,7.26,1.53,1.49,3.01,3.03,4.42,4.64,1.42,1.58,2.68,3.31,4.13,4.97h0c.74.85,1.49,1.68,2.4,2.45.23.19.48.38.77.56.16.09.32.18.55.25.14.03.25.08.49.07.04,0,.12,0,.2-.03.07-.02.15-.04.27-.12l.08-.05.08-.07c-.39.09.98-.31-.86.17l.06.02.11.03c.15.03.32.06.47.05.13-.02.26-.05.38-.09.26-.07.39-.19.58-.29.3-.22.54-.45.74-.68.81-.94,1.37-1.92,1.92-2.92l.39-.76.09-.19s.01-.03.05-.09l.23-.34.91-1.38c2.41-3.68,4.89-7.31,7.44-10.89,1.66-2.31,3.33-4.64,4.98-6.94,4.05-5.7,8.37-11.24,13.2-16.3.6-.64,1.21-1.26,1.83-1.87.61-.62,1.25-1.22,1.89-1.81,1.27-1.16,2.62-2.36,3.99-3.26.8-.48,1.53-1.04,2.18-1.75.3-.38.61-.76.79-1.26.12-.23.15-.51.2-.77,0-.27.04-.55-.05-.82l-.1-.4-.18-.35c-.11-.25-.28-.43-.44-.63-.15-.21-.34-.36-.53-.52-.18-.17-.39-.3-.61-.43-.43-.26-.95-.41-1.47-.45-.53-.03-1.04.09-1.51.27-.71.29-1.31.74-1.83,1.24-.13.13-.26.26-.38.4-.08.09-.07.1-.12.14l-.15.11-.82.61-1.65,1.23c-.54.42-1.03.89-1.54,1.34l-1.53,1.36c-.49.47-.96.96-1.45,1.44-.96.96-1.92,1.92-2.81,2.94-3.37,3.67-6.54,7.55-9.61,11.51-3.08,3.96-6.06,7.99-8.95,12.09-1.19,1.71-2.42,3.36-3.62,5.03l-1.79,2.51-1.5,2.18-.16.22s-.02.06-.04.03l-.07-.09-.14-.17-.28-.33-.38-.43c-4.58-5.11-9.58-9.75-14.71-14.23-1.3-1.12-2.55-2.21-3.93-3.32-.75-.54-1.57-1.02-2.55-1.25-.95-.27-2.2-.12-3.08.57-.23.16-.39.36-.59.55-.17.21-.33.45-.47.68-.24.52-.4,1.14-.3,1.71.14,1.17.77,1.99,1.38,2.7l.33.37c.09.1.18.2.28.3.19.2.38.38.58.56.14.13.3.24.46.32l.14-.2c.15-.32.36-.61.39-.63.04-.04.12-.13.17-.19l.24-.33c-.51-.33-.97-.74-1.35-1.19-.6-.64-1.06-1.41-1.06-2.07.03-.32.1-.61.34-.89.08-.15.26-.26.37-.39.15-.09.28-.21.44-.26.87-.4,2.12.06,3.13.78.48.34,1.04.85,1.56,1.28l1.59,1.36c2.11,1.82,4.18,3.69,6.22,5.59,2.03,1.9,4.03,3.84,5.95,5.85.96,1.01,1.91,2.02,2.82,3.06l.35.39.17.19.25.3,1.02,1.22.51.61.25.3.13.15s.09.14.12.03l.93-1.5,2.38-3.77,2.2-3.37c1.48-2.24,2.99-4.46,4.53-6.66,3.09-4.39,6.31-8.69,9.73-12.81l1.56-1.91,1.6-1.88c.54-.62,1.07-1.25,1.63-1.84.57-.59,1.14-1.16,1.73-1.72.79-.77,1.57-1.54,2.36-2.3.79-.75,1.52-1.58,2.33-2.32.94-.84,1.84-1.76,2.82-2.56l1.5-1.16.75-.57c.27-.16.42-.4.49-.47.09-.1.19-.2.3-.3.42-.39.88-.72,1.35-.9.78-.3,1.52-.2,2.18.36.16.14.34.28.45.44l.19.23c.04.08.08.16.12.24.13.32.18.62.06.96-.24.7-.94,1.43-1.72,1.99-.19.15-.4.28-.6.41-.1.06-.19.11-.36.22l-.36.25c-.45.33-.89.66-1.31,1.01-3.35,2.77-6.32,5.87-9.18,9.06-5.69,6.41-10.86,13.23-15.8,20.19-2.51,3.56-4.94,7.17-7.3,10.84l-.89,1.37c-.4.59-.52,1.03-.8,1.5-.49.92-1.04,1.85-1.66,2.54-.15.17-.31.32-.43.39-.06.04-.12.08-.11.06,0-.02,0,.03,0,.1,0,.09,0,.06,0,.07,0,.01,0,.04,0,.07-.4.02.89-.04-.89.04.02-.03.04-.05.07-.07.22.24-.4-.64.53.53h0s-.02-.04-.03-.06c-.02-.03-.03-.07-.03-.1-.01-.08-.02-.17,0-.26,0-.11.03-.26.06-.31,0,0-.02,0-.02,0-.03,0-.13-.06-.21-.11-.17-.11-.37-.25-.56-.41-.76-.64-1.49-1.43-2.2-2.23h0c-1.29-1.45-2.49-3.07-3.83-4.59-1.32-1.52-2.69-2.99-4.11-4.42-2.84-2.85-5.82-5.54-8.9-8.1-.9-.79-1.8-1.57-2.67-2.39-.29.34-.58.68-.86,1.03-.11.14-.22.29-.33.44Z"/>
    </g>
  </g>
</svg>