<svg width="58" height="58" viewBox="0 0 58 58" fill="none" xmlns="http://www.w3.org/2000/svg">
<g clip-path="url(#clip0_203_202)">
<g clip-path="url(#clip1_203_202)">
<path d="M41.1034 28.8679C43.2555 28.968 44.9771 28.9938 46.6601 29.1326C50.0389 29.4102 51.64 31.6699 50.0389 33.949C49.2635 35.1048 48.344 36.2029 47.2928 37.2288C43.8954 40.3988 40.4434 43.5312 36.9369 46.6259C34.8795 48.4466 32.5768 48.7533 29.637 47.8236C28.9448 47.6301 28.2753 47.3936 27.6356 47.1166C21.8964 44.4116 16.4479 41.3744 11.3399 38.0326C10.2456 37.2905 9.25875 36.4638 8.39585 35.5663C6.34275 33.4842 7.33272 31.5989 10.7416 31.0566C11.8374 30.9238 12.9426 30.8398 14.0516 30.8048C14.766 30.7596 15.4848 30.7273 16.4318 30.6757C16.4944 30.2048 16.5145 29.7314 16.492 29.2585C16.1348 26.9633 15.5925 24.681 15.3859 22.3826C15.1277 19.709 15.0502 17.0272 15.1534 14.3477C15.2653 11.8685 16.8364 10.6741 20.086 10.2254C23.6074 9.75508 27.1873 9.57861 30.7604 9.69921C31.3716 9.71535 31.9828 9.79929 32.5897 9.85739C36.1837 10.1802 38.5338 11.4973 38.891 14.3768C38.9969 14.8315 39.1761 15.2749 39.4247 15.6971C40.5278 18.0611 41.064 20.553 41.0087 23.0573C40.9742 24.8973 41.0646 26.7373 41.1034 28.8679ZM13.3586 34.3009C15.7818 37.2062 26.8651 43.1653 32.6887 44.76C36.5926 41.3059 40.5783 37.8034 44.5037 34.2621C44.9987 33.8167 45.1708 33.1678 45.5367 32.5415C43.6988 32.0961 42.0933 32.4608 40.5352 32.4286C38.4649 32.3866 37.7074 32.1219 37.4061 30.6821C37.0617 29.0681 37.079 27.3862 36.9757 25.7334C36.7992 23.3446 36.7647 20.9428 36.4247 18.5669C36.2167 16.7402 35.4824 14.9692 34.2726 13.3761C29.0516 12.5529 23.5122 12.8725 19.7288 14.2315C19.2381 15.6229 19.2639 17.0949 19.3199 18.5637C19.4533 22.0694 19.5824 25.5688 20.4949 29.0293C20.9641 30.808 20.6714 32.5157 18.8206 34.0007C17.1334 34.091 15.4289 34.1847 13.3586 34.3009Z" fill="#071742"/>
<path d="M13.3586 34.3006C15.4504 34.1844 17.1549 34.0908 18.7991 34.0004C20.6499 32.5154 20.9512 30.8077 20.4734 29.029C19.5609 25.5685 19.4318 22.0692 19.2984 18.5634C19.2424 17.0946 19.2166 15.6226 19.7073 14.2312C23.5079 12.8722 29.0301 12.5526 34.2511 13.3758C35.4609 14.9689 36.1951 16.7399 36.4032 18.5666C36.7432 20.9425 36.7777 23.3443 36.9541 25.7331C37.079 27.3859 37.0617 29.0549 37.3846 30.6818C37.6858 32.1216 38.4434 32.3863 40.5137 32.4283C42.0847 32.4606 43.6773 32.1055 45.5152 32.5413C45.1493 33.1675 44.9771 33.8325 44.4822 34.2619C40.5567 37.8128 36.5711 41.3057 32.6672 44.7598C26.8436 43.1683 15.7603 37.2156 13.3586 34.3006Z" fill="#243A73"/>
</g>
</g>
<defs>
<clipPath id="clip0_203_202">
<rect x="58" y="58" width="58" height="58" rx="10" transform="rotate(-180 58 58)" fill="white"/>
</clipPath>
<clipPath id="clip1_203_202">
<rect width="38.6667" height="51.5556" fill="white" transform="matrix(0 -1 1 0 3.22223 48.3334)"/>
</clipPath>
</defs>
</svg>
