<?xml version="1.0" encoding="UTF-8"?>
<svg id="Lag_2" xmlns="http://www.w3.org/2000/svg" viewBox="0 0 145.5 75">
  <defs>
    <style>
      .cls-1 {
        fill: none;
        stroke: #1d1d1b;
        stroke-miterlimit: 10;
        stroke-width: 3px;
      }
    </style>
  </defs>
  <g id="Lag_1-2" data-name="Lag_1">
    <path class="cls-1" d="M54,55.5h87.17c1.57,0,2.83-1.27,2.83-2.83V4.33c0-1.57-1.27-2.83-2.83-2.83H54"/>
    <path class="cls-1" d="M110.83,10.5h33.17v27h-33.17c-1.57,0-2.83-1.27-2.83-2.83V13.33c0-1.57,1.27-2.83,2.83-2.83Z"/>
    <rect class="cls-1" x="63" y="10.5" width="36" height="27" rx="2.83" ry="2.83"/>
    <circle class="cls-1" cx="126" cy="64.5" r="9"/>
    <circle class="cls-1" cx="90" cy="64.5" r="9"/>
    <circle class="cls-1" cx="54" cy="64.5" r="9"/>
    <line class="cls-1" x1="45" y1="10.5" x2="9" y2="10.5"/>
    <line class="cls-1" x1="45" y1="28.5" x2="18" y2="28.5"/>
    <line class="cls-1" x1="45" y1="46.5" y2="46.5"/>
  </g>
</svg>