<svg width="200" height="200" viewBox="0 0 200 200" fill="none" xmlns="http://www.w3.org/2000/svg">
<path d="M99.9998 17.6667C103.466 17.6667 106.5 19.7144 110.069 24.3757C113.193 28.4549 116.583 34.3412 120.927 42.1111L122.85 45.5564L125.581 50.4558C128.445 55.5925 130.041 58.4949 132.452 60.4275L132.688 60.6121C134.92 62.3062 137.625 63.0504 142.111 64.0798L144.147 64.5427L149.45 65.7419C159.732 68.0685 167.328 69.7907 172.669 71.8953C177.824 73.9269 180.636 76.2232 181.794 79.5378L181.9 79.8611C182.989 83.3619 182.036 87.0427 178.902 92.0203C176.154 96.3851 171.845 101.572 166.115 108.291L163.573 111.266L159.958 115.494C156.164 119.931 154.018 122.411 153.007 125.393L152.913 125.684C152.067 128.406 152.223 131.3 152.672 136.076L152.88 138.243L153.427 143.884C154.486 154.816 155.267 162.907 155.002 168.875C154.744 174.655 153.512 178.167 150.864 180.333L150.603 180.539C147.791 182.674 144.192 182.874 138.7 181.301C133.883 179.921 127.835 177.242 119.948 173.625L116.454 172.018L111.489 169.732C106.12 167.26 103.161 165.874 99.9998 165.874C97.2337 165.874 94.6231 166.935 90.4167 168.856L88.5115 169.732H88.5105L83.5457 172.018C73.9182 176.451 66.8048 179.723 61.3005 181.301C55.9807 182.825 52.437 182.684 49.6638 180.733L49.3972 180.539C46.5686 178.391 45.2646 174.841 44.9988 168.875C44.7662 163.653 45.3355 156.806 46.1912 147.851L46.574 143.884L47.1199 138.243C47.6937 132.322 48.0323 129.005 47.1736 125.976L47.0876 125.684C46.2403 122.959 44.4808 120.707 41.4304 117.119L40.0427 115.494L36.4275 111.266C29.4192 103.071 24.2387 97.0086 21.0984 92.0203C18.0629 87.1982 17.0728 83.5935 18.0037 80.1902L18.1003 79.8611C19.1857 76.3712 22.0106 73.9923 27.3318 71.8953C32.0046 70.0538 38.4039 68.5055 46.8191 66.5886L50.5505 65.7419L55.8533 64.5427C61.4128 63.2848 64.5615 62.5925 67.072 60.7898L67.3123 60.6121C69.5388 58.9218 71.0474 56.4738 73.3699 52.3357L74.4187 50.4558L77.1501 45.5564C82.4439 36.0598 86.3614 29.0376 89.9314 24.3757C93.5009 19.7146 96.534 17.6669 99.9998 17.6667Z" fill="#E8C546" stroke="#000103" stroke-width="2"/>
</svg>
