<svg width="58" height="58" viewBox="0 0 58 58" fill="none" xmlns="http://www.w3.org/2000/svg">
<g clip-path="url(#clip0_203_210)">
<g clip-path="url(#clip1_203_210)">
<path d="M16.8966 29.1321C14.7445 29.032 13.0229 29.0062 11.3399 28.8674C7.96114 28.5898 6.35998 26.3301 7.96114 24.051C8.7365 22.8952 9.65596 21.7971 10.7072 20.7712C14.1046 17.6012 17.5566 14.4688 21.0631 11.3741C23.1205 9.55342 25.4232 9.24674 28.363 10.1764C29.0552 10.3699 29.7247 10.6064 30.3644 10.8834C36.1036 13.5884 41.5521 16.6256 46.6601 19.9674C47.7544 20.7095 48.7413 21.5362 49.6041 22.4337C51.6572 24.5158 50.6673 26.4011 47.2584 26.9434C46.1626 27.0762 45.0574 27.1602 43.9484 27.1952C43.234 27.2404 42.5152 27.2727 41.5682 27.3243C41.5056 27.7952 41.4855 28.2686 41.508 28.7415C41.8652 31.0367 42.4075 33.319 42.6141 35.6174C42.8723 38.291 42.9498 40.9728 42.8466 43.6523C42.7347 46.1315 41.1636 47.3259 37.914 47.7746C34.3926 48.2449 30.8127 48.4214 27.2396 48.3008C26.6284 48.2846 26.0172 48.2007 25.4103 48.1426C21.8163 47.8198 19.4662 46.5027 19.109 43.6232C19.0031 43.1685 18.8239 42.7251 18.5753 42.3029C17.4722 39.9389 16.936 37.447 16.9913 34.9427C17.0258 33.1027 16.9354 31.2627 16.8966 29.1321ZM44.6414 23.6991C42.2182 20.7938 31.1349 14.8347 25.3113 13.24C21.4074 16.6941 17.4217 20.1966 13.4963 23.7379C13.0013 24.1833 12.8292 24.8322 12.4633 25.4585C14.3012 25.9039 15.9067 25.5392 17.4648 25.5714C19.5351 25.6134 20.2926 25.8781 20.5939 27.3179C20.9383 28.9319 20.921 30.6138 21.0243 32.2666C21.2008 34.6554 21.2353 37.0572 21.5753 39.4331C21.7833 41.2598 22.5176 43.0308 23.7274 44.6239C28.9484 45.4471 34.4878 45.1275 38.2712 43.7685C38.7619 42.3771 38.7361 40.9051 38.6801 39.4363C38.5467 35.9306 38.4176 32.4312 37.5051 28.9707C37.0359 27.192 37.3286 25.4843 39.1794 23.9993C40.8666 23.909 42.5711 23.8153 44.6414 23.6991Z" fill="#071742"/>
<path d="M44.6414 23.6994C42.5496 23.8156 40.8451 23.9092 39.2009 23.9996C37.3501 25.4846 37.0488 27.1923 37.5266 28.971C38.4391 32.4315 38.5682 35.9308 38.7016 39.4366C38.7576 40.9054 38.7834 42.3774 38.2927 43.7688C34.4921 45.1278 28.9699 45.4474 23.7489 44.6242C22.5391 43.0311 21.8049 41.2601 21.5968 39.4334C21.2568 37.0575 21.2223 34.6557 21.0459 32.2669C20.921 30.6141 20.9383 28.9451 20.6154 27.3182C20.3142 25.8784 19.5566 25.6137 17.4863 25.5717C15.9153 25.5394 14.3227 25.8945 12.4848 25.4587C12.8507 24.8325 13.0229 24.1675 13.5178 23.7381C17.4433 20.1872 21.4289 16.6943 25.3328 13.2402C31.1564 14.8317 42.2397 20.7844 44.6414 23.6994Z" fill="#243A73"/>
</g>
</g>
<defs>
<clipPath id="clip0_203_210">
<rect width="58" height="58" rx="10" fill="white"/>
</clipPath>
<clipPath id="clip1_203_210">
<rect width="38.6667" height="51.5556" fill="white" transform="matrix(0 1 -1 0 54.7778 9.66663)"/>
</clipPath>
</defs>
</svg>
